<mxfile host="app.diagrams.net" modified="2021-05-07T06:35:15.519Z" agent="5.0 (Windows NT 10.0; Win64; x64) AppleWebKit/537.36 (KHTML, like Gecko) Chrome/90.0.4430.93 Safari/537.36" etag="G1SWTt6MjP7PZf9Anv3I" version="14.6.9" type="github">
  <diagram id="lMDNcOSs3lMQIxUguSS0" name="Page-1">
    <mxGraphModel dx="887" dy="814" grid="1" gridSize="10" guides="1" tooltips="1" connect="1" arrows="1" fold="1" page="1" pageScale="1" pageWidth="1169" pageHeight="827" math="0" shadow="0">
      <root>
        <mxCell id="0" />
        <mxCell id="1" parent="0" />
        <mxCell id="IrnzPBB1oJrZkGAjnWZN-1" value="Flight Controller" style="rounded=0;whiteSpace=wrap;html=1;fillColor=#e1d5e7;strokeColor=#9673a6;fontStyle=1" vertex="1" parent="1">
          <mxGeometry x="864" y="570" width="120" height="60" as="geometry" />
        </mxCell>
        <mxCell id="IrnzPBB1oJrZkGAjnWZN-2" style="edgeStyle=orthogonalEdgeStyle;rounded=0;orthogonalLoop=1;jettySize=auto;html=1;exitX=1;exitY=0.5;exitDx=0;exitDy=0;entryX=0;entryY=0.5;entryDx=0;entryDy=0;startArrow=classic;startFill=1;" edge="1" parent="1" source="IrnzPBB1oJrZkGAjnWZN-5" target="IrnzPBB1oJrZkGAjnWZN-1">
          <mxGeometry relative="1" as="geometry" />
        </mxCell>
        <mxCell id="IrnzPBB1oJrZkGAjnWZN-3" value="UART" style="edgeLabel;html=1;align=center;verticalAlign=middle;resizable=0;points=[];" vertex="1" connectable="0" parent="IrnzPBB1oJrZkGAjnWZN-2">
          <mxGeometry x="0.3252" y="3" relative="1" as="geometry">
            <mxPoint x="-13" y="-7" as="offset" />
          </mxGeometry>
        </mxCell>
        <mxCell id="IrnzPBB1oJrZkGAjnWZN-4" style="edgeStyle=orthogonalEdgeStyle;rounded=0;orthogonalLoop=1;jettySize=auto;html=1;exitX=0.5;exitY=0;exitDx=0;exitDy=0;entryX=0.5;entryY=1;entryDx=0;entryDy=0;dashed=1;startArrow=none;startFill=0;endArrow=none;endFill=0;" edge="1" parent="1" source="IrnzPBB1oJrZkGAjnWZN-5" target="IrnzPBB1oJrZkGAjnWZN-9">
          <mxGeometry relative="1" as="geometry" />
        </mxCell>
        <mxCell id="IrnzPBB1oJrZkGAjnWZN-32" style="edgeStyle=orthogonalEdgeStyle;rounded=0;orthogonalLoop=1;jettySize=auto;html=1;exitX=0.5;exitY=1;exitDx=0;exitDy=0;entryX=0.5;entryY=0;entryDx=0;entryDy=0;dashed=1;endArrow=none;endFill=0;" edge="1" parent="1" source="IrnzPBB1oJrZkGAjnWZN-5" target="IrnzPBB1oJrZkGAjnWZN-30">
          <mxGeometry relative="1" as="geometry" />
        </mxCell>
        <mxCell id="IrnzPBB1oJrZkGAjnWZN-5" value="Onboard Computer" style="rounded=0;whiteSpace=wrap;html=1;fillColor=#e1d5e7;strokeColor=#9673a6;fontStyle=1" vertex="1" parent="1">
          <mxGeometry x="650" y="570" width="120" height="60" as="geometry" />
        </mxCell>
        <mxCell id="IrnzPBB1oJrZkGAjnWZN-8" style="edgeStyle=orthogonalEdgeStyle;rounded=0;orthogonalLoop=1;jettySize=auto;html=1;exitX=1;exitY=0.5;exitDx=0;exitDy=0;entryX=0.5;entryY=0;entryDx=0;entryDy=0;dashed=1;startArrow=none;startFill=0;endArrow=none;endFill=0;" edge="1" parent="1" source="IrnzPBB1oJrZkGAjnWZN-9" target="IrnzPBB1oJrZkGAjnWZN-1">
          <mxGeometry relative="1" as="geometry" />
        </mxCell>
        <mxCell id="IrnzPBB1oJrZkGAjnWZN-9" value="MAVROS" style="rounded=0;whiteSpace=wrap;html=1;fillColor=#dae8fc;strokeColor=#6c8ebf;fontStyle=1;dashed=1;" vertex="1" parent="1">
          <mxGeometry x="650" y="460" width="120" height="60" as="geometry" />
        </mxCell>
        <mxCell id="IrnzPBB1oJrZkGAjnWZN-28" style="edgeStyle=orthogonalEdgeStyle;rounded=0;orthogonalLoop=1;jettySize=auto;html=1;exitX=1;exitY=0.5;exitDx=0;exitDy=0;entryX=0;entryY=0.5;entryDx=0;entryDy=0;endArrow=none;endFill=0;dashed=1;" edge="1" parent="1" source="IrnzPBB1oJrZkGAjnWZN-11" target="IrnzPBB1oJrZkGAjnWZN-18">
          <mxGeometry relative="1" as="geometry" />
        </mxCell>
        <mxCell id="IrnzPBB1oJrZkGAjnWZN-11" value="Our GCS App" style="rounded=0;whiteSpace=wrap;html=1;fillColor=#fff2cc;strokeColor=#d6b656;fontStyle=1;dashed=1;" vertex="1" parent="1">
          <mxGeometry x="330" y="690" width="120" height="60" as="geometry" />
        </mxCell>
        <mxCell id="IrnzPBB1oJrZkGAjnWZN-29" style="edgeStyle=orthogonalEdgeStyle;rounded=0;orthogonalLoop=1;jettySize=auto;html=1;exitX=0.5;exitY=1;exitDx=0;exitDy=0;entryX=0.5;entryY=0;entryDx=0;entryDy=0;dashed=1;endArrow=none;endFill=0;" edge="1" parent="1" source="IrnzPBB1oJrZkGAjnWZN-15" target="IrnzPBB1oJrZkGAjnWZN-11">
          <mxGeometry relative="1" as="geometry" />
        </mxCell>
        <mxCell id="IrnzPBB1oJrZkGAjnWZN-15" value="Android" style="rounded=0;whiteSpace=wrap;html=1;fillColor=#d5e8d4;strokeColor=#82b366;fontStyle=1" vertex="1" parent="1">
          <mxGeometry x="330" y="570" width="120" height="60" as="geometry" />
        </mxCell>
        <mxCell id="IrnzPBB1oJrZkGAjnWZN-16" style="edgeStyle=orthogonalEdgeStyle;rounded=0;orthogonalLoop=1;jettySize=auto;html=1;exitX=1;exitY=0.5;exitDx=0;exitDy=0;startArrow=classic;startFill=1;" edge="1" parent="1" source="IrnzPBB1oJrZkGAjnWZN-15">
          <mxGeometry relative="1" as="geometry">
            <mxPoint x="780" y="610" as="sourcePoint" />
            <mxPoint x="650" y="600" as="targetPoint" />
          </mxGeometry>
        </mxCell>
        <mxCell id="IrnzPBB1oJrZkGAjnWZN-31" style="edgeStyle=orthogonalEdgeStyle;rounded=0;orthogonalLoop=1;jettySize=auto;html=1;exitX=1;exitY=0.5;exitDx=0;exitDy=0;entryX=0;entryY=0.5;entryDx=0;entryDy=0;dashed=1;endArrow=none;endFill=0;" edge="1" parent="1" source="IrnzPBB1oJrZkGAjnWZN-18" target="IrnzPBB1oJrZkGAjnWZN-30">
          <mxGeometry relative="1" as="geometry" />
        </mxCell>
        <mxCell id="IrnzPBB1oJrZkGAjnWZN-18" value="MAVSDK" style="rounded=0;whiteSpace=wrap;html=1;fillColor=#dae8fc;strokeColor=#6c8ebf;fontStyle=1;dashed=1;" vertex="1" parent="1">
          <mxGeometry x="480" y="690" width="120" height="60" as="geometry" />
        </mxCell>
        <mxCell id="IrnzPBB1oJrZkGAjnWZN-19" value="Radio" style="edgeLabel;html=1;align=center;verticalAlign=middle;resizable=0;points=[];" vertex="1" connectable="0" parent="1">
          <mxGeometry x="584" y="590.0000000000002" as="geometry" />
        </mxCell>
        <mxCell id="IrnzPBB1oJrZkGAjnWZN-21" value="" style="shape=image;verticalLabelPosition=bottom;labelBackgroundColor=#ffffff;verticalAlign=top;aspect=fixed;imageAspect=0;image=https://mavlink.io/assets/site/logo_mavlink_small.png;" vertex="1" parent="1">
          <mxGeometry x="790" y="468" width="74" height="17.76" as="geometry" />
        </mxCell>
        <mxCell id="IrnzPBB1oJrZkGAjnWZN-25" value="" style="shape=image;html=1;verticalAlign=top;verticalLabelPosition=bottom;labelBackgroundColor=#ffffff;imageAspect=0;aspect=fixed;image=https://cdn2.iconfinder.com/data/icons/strongicon-vol-24-free/24/filetype-16-128.png;dashed=1;" vertex="1" parent="1">
          <mxGeometry x="660" y="481" width="18" height="18" as="geometry" />
        </mxCell>
        <mxCell id="IrnzPBB1oJrZkGAjnWZN-26" value="" style="shape=image;html=1;verticalAlign=top;verticalLabelPosition=bottom;labelBackgroundColor=#ffffff;imageAspect=0;aspect=fixed;image=https://cdn4.iconfinder.com/data/icons/logos-and-brands/512/181_Java_logo_logos-128.png;dashed=1;" vertex="1" parent="1">
          <mxGeometry x="490" y="710" width="20" height="20" as="geometry" />
        </mxCell>
        <mxCell id="IrnzPBB1oJrZkGAjnWZN-33" style="edgeStyle=orthogonalEdgeStyle;rounded=0;orthogonalLoop=1;jettySize=auto;html=1;exitX=1;exitY=0.5;exitDx=0;exitDy=0;entryX=0.5;entryY=1;entryDx=0;entryDy=0;dashed=1;endArrow=none;endFill=0;" edge="1" parent="1" source="IrnzPBB1oJrZkGAjnWZN-30" target="IrnzPBB1oJrZkGAjnWZN-1">
          <mxGeometry relative="1" as="geometry" />
        </mxCell>
        <mxCell id="IrnzPBB1oJrZkGAjnWZN-30" value="MAVSDK-server" style="rounded=0;whiteSpace=wrap;html=1;fillColor=#dae8fc;strokeColor=#6c8ebf;fontStyle=1;dashed=1;" vertex="1" parent="1">
          <mxGeometry x="650" y="690" width="120" height="60" as="geometry" />
        </mxCell>
        <mxCell id="IrnzPBB1oJrZkGAjnWZN-34" value="" style="shape=image;verticalLabelPosition=bottom;labelBackgroundColor=#ffffff;verticalAlign=top;aspect=fixed;imageAspect=0;image=https://mavlink.io/assets/site/logo_mavlink_small.png;" vertex="1" parent="1">
          <mxGeometry x="790" y="692.24" width="74" height="17.76" as="geometry" />
        </mxCell>
      </root>
    </mxGraphModel>
  </diagram>
</mxfile>
